<svg width="24" height="25" viewBox="0 0 24 25" fill="none" xmlns="http://www.w3.org/2000/svg">
<path id="&#229;&#155;&#190;&#230;&#160;&#135;" d="M23.9721 18.4702C23.4054 19.1402 22.6965 19.7626 21.8476 20.3199L21.8244 20.3353L21.823 20.336C19.285 21.9939 15.8254 22.9068 12.0781 22.9068C8.87641 22.9068 5.77233 22.2095 3.33669 20.9438C1.96009 20.2279 0.843156 19.3462 0.0221482 18.3593C0.202981 20.1561 1.56072 21.9165 4.05295 23.212C6.35762 24.4102 9.22663 25 12.0781 25C15.3698 25 18.6375 24.2145 20.9903 22.6713L20.995 22.6686C22.8393 21.4576 23.8152 19.9742 23.9721 18.4702ZM21.8476 16.6567L21.8244 16.6719L21.823 16.6727C19.285 18.3307 15.8254 19.2434 12.0781 19.2434C8.87641 19.2434 5.77233 18.5463 3.33669 17.2804C1.96009 16.5647 0.843156 15.6828 0.0221482 14.696C0.202981 16.4929 1.56072 18.2532 4.05295 19.5488C6.35762 20.747 9.22663 21.3368 12.0781 21.3368C15.3698 21.3368 18.6375 20.5511 20.9903 19.0081L20.995 19.0052C22.8393 17.7944 23.8152 16.3109 23.9721 14.8068C23.4054 15.4768 22.6965 16.0993 21.8476 16.6567ZM21.8476 12.9933L21.8244 13.0087L21.823 13.0095C19.285 14.6673 15.8254 15.5801 12.0781 15.5801C8.87641 15.5801 5.77233 14.8831 3.33669 13.6171C1.96009 12.9014 0.843156 12.0195 0.0221482 11.0326C0.202981 12.8296 1.56072 14.59 4.05295 15.8854C6.35762 17.0837 9.22663 17.6734 12.0781 17.6734C15.3698 17.6734 18.6375 16.8879 20.9903 15.3448L20.995 15.3419C22.8393 14.1309 23.8152 12.6477 23.9721 11.1436C23.4054 11.8136 22.6965 12.4361 21.8476 12.9933ZM0.0070055 6.72463C-0.110841 8.74184 1.25897 10.7787 4.05295 12.2308C9.01784 14.8117 16.5992 14.5705 20.9903 11.6904L20.995 11.6873C22.9201 10.4234 23.9102 8.86309 23.9984 7.29211C24.0041 7.19404 23.993 7.09591 23.9913 6.99767C23.99 6.87484 23.996 6.75173 23.9829 6.62876C23.7973 4.836 22.4396 3.08033 19.9531 1.78799C17.6485 0.590004 14.7801 0 11.929 0C11.7145 0 11.5006 0.0125484 11.2868 0.0191513C11.2747 0.0194944 11.2629 0.0200088 11.2508 0.0201517C10.88 0.0325286 10.5116 0.0547385 10.1446 0.0865526C10.1287 0.0880675 10.1133 0.0894395 10.0981 0.0909544C9.73242 0.124026 9.37007 0.166016 9.01042 0.218525C8.99593 0.220755 8.9811 0.223099 8.96633 0.225328C8.60469 0.279009 8.24805 0.341694 7.89582 0.415212C7.88636 0.417099 7.87795 0.4191 7.8692 0.421158C6.05922 0.801126 4.37956 1.43415 3.01173 2.33097L3.00838 2.33297C1.08592 3.59536 0.0952203 5.15434 0.0070055 6.72463ZM19.7083 11.0111L19.7073 11.0119C15.9449 13.4804 9.44277 13.6891 5.18974 11.4778C0.932365 9.26478 0.536692 5.47025 4.29873 3.00178C8.06316 0.53092 14.5592 0.322571 18.8163 2.53541C23.0693 4.74658 23.4727 8.54078 19.7083 11.0111ZM4.79646 3.26064C1.28392 5.57427 1.65939 9.11386 5.63022 11.1888C9.61957 13.2517 15.6826 13.0589 19.2096 10.7528C22.7222 8.4393 22.3501 4.89751 18.3758 2.82439C14.3898 0.75945 8.3238 0.954422 4.79646 3.26064ZM8.28169 9.99236L7.73314 10.3523C7.52469 10.4888 7.44929 10.4894 7.20311 10.3616L7.12666 10.3218L6.92597 10.2175C6.67746 10.0884 6.66936 10.0442 6.8775 9.90778L7.42639 9.54762C6.95998 9.30523 5.30998 8.11536 5.67602 7.87534C5.71304 7.85079 5.71304 7.85079 5.81239 7.81863L7.23846 7.35277C7.27383 7.34191 7.40449 7.32227 7.46074 7.35142C7.54458 7.39513 7.98943 8.18808 8.7474 8.68067L11.1386 7.11155C10.6254 6.45834 9.46834 5.35334 11.078 4.29699C12.8735 3.11881 15.1771 3.71479 15.8371 4.02832L16.4355 3.63547C16.6426 3.49929 16.7221 3.49672 16.9693 3.62529L17.2501 3.77084C17.4936 3.89772 17.4982 3.94449 17.2908 4.08015L16.6924 4.47281C17.0709 4.69879 18.5678 5.7909 18.1522 6.06348C18.103 6.09632 18.0519 6.11328 17.9741 6.13105L16.7177 6.45225C16.6315 6.48004 16.5523 6.48292 16.4958 6.45343C16.4119 6.40972 16.0079 5.6232 15.4115 5.31338L13.1536 6.79512C13.6611 7.51827 14.6551 8.65137 13.092 9.67708C11.3959 10.7904 9.32998 10.3767 8.28169 9.99236ZM11.4326 8.90194C12.1398 8.43796 11.7872 7.95195 11.6168 7.69209L9.50846 9.0761C10.0041 9.22088 10.7625 9.34153 11.4326 8.90194ZM12.6634 6.22627L14.6545 4.91969C14.3154 4.8165 13.4817 4.58394 12.7624 5.05589C12.1017 5.48957 12.4819 5.98642 12.6634 6.22627Z" fill="#FFC120"/>
</svg>
