<svg width="165" height="21" viewBox="0 0 165 21" fill="none" xmlns="http://www.w3.org/2000/svg">
<g id="YUAN TAO">
<path d="M18.252 0.339844L11.4844 11.1406V20H7.65625V11.1406L0.888672 0.339844H5.04492L9.57031 8.58398L14.0957 0.339844H18.252ZM40.3364 0.339844V11.3594C40.3364 12.7812 40.1906 14.0482 39.8989 15.1602C39.6072 16.2721 39.1333 17.2109 38.477 17.9766C37.8299 18.7422 36.9822 19.3255 35.9341 19.7266C34.895 20.1185 33.6235 20.3145 32.1196 20.3145C30.5884 20.3145 29.2986 20.1094 28.2505 19.6992C27.2114 19.2891 26.3683 18.6966 25.7212 17.9219C25.0832 17.1471 24.6229 16.2083 24.3403 15.1055C24.0669 13.9935 23.9302 12.7448 23.9302 11.3594V0.339844H27.813V11.8242C27.813 12.6901 27.8859 13.474 28.0317 14.1758C28.1867 14.8685 28.4328 15.4609 28.77 15.9531C29.1164 16.4362 29.563 16.8099 30.1098 17.0742C30.6567 17.3385 31.3266 17.4707 32.1196 17.4707C32.9308 17.4707 33.6144 17.3385 34.1704 17.0742C34.7264 16.8099 35.173 16.4316 35.5102 15.9395C35.8475 15.4473 36.089 14.8548 36.2348 14.1621C36.3807 13.4603 36.4536 12.681 36.4536 11.8242V0.339844H40.3364ZM56.9521 0.339844L64.3759 20H60.5205L58.2783 13.957H51.7978L49.5556 20H45.7002L53.124 0.339844H56.9521ZM55.038 4.40039L52.8095 11.209H57.2666L55.038 4.40039ZM86.6108 0.339844V20H82.3862L73.7866 5.30273V20H69.9721V0.339844H74.1967L82.7963 15.0371V0.339844H86.6108ZM118.461 0.339844V3.14258H112.719V20H108.905V3.14258H103.108V0.339844H118.461ZM134.052 0.339844L141.475 20H137.62L135.378 13.957H128.897L126.655 20H122.8L130.224 0.339844H134.052ZM132.138 4.40039L129.909 11.209H134.366L132.138 4.40039ZM155.165 0.0390625C156.806 0.0390625 158.191 0.289714 159.322 0.791016C160.452 1.2832 161.368 1.97591 162.07 2.86914C162.781 3.76237 163.291 4.83333 163.601 6.08203C163.911 7.32161 164.066 8.6888 164.066 10.1836C164.066 11.6784 163.911 13.0501 163.601 14.2988C163.291 15.5384 162.781 16.6048 162.07 17.498C161.368 18.3913 160.452 19.0885 159.322 19.5898C158.191 20.082 156.806 20.3281 155.165 20.3281C153.552 20.3281 152.18 20.0866 151.05 19.6035C149.92 19.1204 148.999 18.4368 148.288 17.5527C147.587 16.6686 147.072 15.6022 146.744 14.3535C146.425 13.1048 146.265 11.7148 146.265 10.1836C146.265 8.65234 146.425 7.26237 146.744 6.01367C147.072 4.76497 147.587 3.69857 148.288 2.81445C148.999 1.93034 149.92 1.24674 151.05 0.763672C152.18 0.280599 153.552 0.0390625 155.165 0.0390625ZM155.165 2.8418C154.208 2.8418 153.406 2.99674 152.759 3.30664C152.121 3.61654 151.606 4.08138 151.214 4.70117C150.831 5.31185 150.558 6.07747 150.394 6.99805C150.23 7.90951 150.148 8.97135 150.148 10.1836C150.148 11.3958 150.23 12.4622 150.394 13.3828C150.558 14.2943 150.831 15.0599 151.214 15.6797C151.606 16.2904 152.121 16.7507 152.759 17.0605C153.406 17.3704 154.208 17.5254 155.165 17.5254C156.113 17.5254 156.906 17.375 157.544 17.0742C158.191 16.7643 158.706 16.304 159.089 15.6934C159.481 15.0827 159.759 14.3171 159.923 13.3965C160.096 12.4759 160.183 11.4049 160.183 10.1836C160.183 8.96224 160.096 7.89128 159.923 6.9707C159.759 6.05013 159.481 5.28451 159.089 4.67383C158.706 4.06315 158.191 3.60742 157.544 3.30664C156.906 2.99674 156.113 2.8418 155.165 2.8418Z" fill="white"/>
<path d="M18.252 0.339844L18.6757 0.605325L19.1553 -0.160156H18.252V0.339844ZM11.4844 11.1406L11.0607 10.8751L10.9844 10.9969V11.1406H11.4844ZM11.4844 20V20.5H11.9844V20H11.4844ZM7.65625 20H7.15625V20.5H7.65625V20ZM7.65625 11.1406H8.15625V10.9969L8.07995 10.8751L7.65625 11.1406ZM0.888672 0.339844V-0.160156H-0.0146628L0.464974 0.605325L0.888672 0.339844ZM5.04492 0.339844L5.48323 0.099247L5.34084 -0.160156H5.04492V0.339844ZM9.57031 8.58398L9.132 8.82458L9.57031 9.62307L10.0086 8.82458L9.57031 8.58398ZM14.0957 0.339844V-0.160156H13.7998L13.6574 0.099247L14.0957 0.339844ZM17.8283 0.0743628L11.0607 10.8751L11.9081 11.4061L18.6757 0.605325L17.8283 0.0743628ZM10.9844 11.1406V20H11.9844V11.1406H10.9844ZM11.4844 19.5H7.65625V20.5H11.4844V19.5ZM8.15625 20V11.1406H7.15625V20H8.15625ZM8.07995 10.8751L1.31237 0.0743628L0.464974 0.605325L7.23255 11.4061L8.07995 10.8751ZM0.888672 0.839844H5.04492V-0.160156H0.888672V0.839844ZM4.60661 0.580441L9.132 8.82458L10.0086 8.34339L5.48323 0.099247L4.60661 0.580441ZM10.0086 8.82458L14.534 0.580441L13.6574 0.099247L9.132 8.34339L10.0086 8.82458ZM14.0957 0.839844H18.252V-0.160156H14.0957V0.839844ZM40.3364 0.339844H40.8364V-0.160156H40.3364V0.339844ZM39.8989 15.1602L39.4153 15.0333L39.8989 15.1602ZM38.477 17.9766L38.0974 17.6512L38.0952 17.6538L38.477 17.9766ZM35.9341 19.7266L36.1105 20.1944L36.1127 20.1935L35.9341 19.7266ZM28.2505 19.6992L28.0669 20.1643L28.0683 20.1648L28.2505 19.6992ZM25.7212 17.9219L25.3352 18.2397L25.3374 18.2424L25.7212 17.9219ZM24.3403 15.1055L23.8548 15.2249L23.856 15.2296L24.3403 15.1055ZM23.9302 0.339844V-0.160156H23.4302V0.339844H23.9302ZM27.813 0.339844H28.313V-0.160156H27.813V0.339844ZM28.0317 14.1758L27.5421 14.2775L27.5438 14.2849L28.0317 14.1758ZM28.77 15.9531L28.3574 16.2358L28.3637 16.2445L28.77 15.9531ZM35.5102 15.9395L35.0978 15.6568L35.5102 15.9395ZM36.2348 14.1621L36.7241 14.2651L36.7244 14.2638L36.2348 14.1621ZM36.4536 0.339844V-0.160156H35.9536V0.339844H36.4536ZM39.8364 0.339844V11.3594H40.8364V0.339844H39.8364ZM39.8364 11.3594C39.8364 12.7481 39.6939 13.9711 39.4153 15.0333L40.3825 15.287C40.6873 14.1252 40.8364 12.8144 40.8364 11.3594H39.8364ZM39.4153 15.0333C39.1401 16.0824 38.6979 16.9506 38.0974 17.6512L38.8567 18.302C39.5686 17.4713 40.0744 16.4619 40.3825 15.287L39.4153 15.0333ZM38.0952 17.6538C37.5088 18.3476 36.7343 18.885 35.7554 19.2596L36.1127 20.1935C37.2301 19.766 38.151 19.1368 38.8589 18.2993L38.0952 17.6538ZM35.7576 19.2587C34.791 19.6233 33.5832 19.8145 32.1196 19.8145V20.8145C33.6638 20.8145 34.999 20.6137 36.1105 20.1944L35.7576 19.2587ZM32.1196 19.8145C30.6297 19.8145 29.406 19.6145 28.4327 19.2336L28.0683 20.1648C29.1913 20.6043 30.547 20.8145 32.1196 20.8145V19.8145ZM28.4341 19.2341C27.4643 18.8513 26.6929 18.3053 26.1049 17.6013L25.3374 18.2424C26.0437 19.0879 26.9585 19.7268 28.0669 20.1643L28.4341 19.2341ZM26.1071 17.604C25.5216 16.893 25.0915 16.0228 24.8247 14.9814L23.856 15.2296C24.1543 16.3939 24.6447 17.4012 25.3352 18.2397L26.1071 17.604ZM24.8258 14.9861C24.5638 13.9203 24.4302 12.7126 24.4302 11.3594H23.4302C23.4302 12.7769 23.57 14.0667 23.8548 15.2249L24.8258 14.9861ZM24.4302 11.3594V0.339844H23.4302V11.3594H24.4302ZM23.9302 0.839844H27.813V-0.160156H23.9302V0.839844ZM27.313 0.339844V11.8242H28.313V0.339844H27.313ZM27.313 11.8242C27.313 12.7175 27.3881 13.5362 27.5422 14.2775L28.5213 14.0741C28.3836 13.4118 28.313 12.6627 28.313 11.8242H27.313ZM27.5438 14.2849C27.71 15.0282 27.9782 15.6821 28.3575 16.2357L29.1825 15.6705C28.8873 15.2398 28.6633 14.7088 28.5197 14.0666L27.5438 14.2849ZM28.3637 16.2445C28.7598 16.797 29.2719 17.2246 29.8923 17.5244L30.3274 16.624C29.854 16.3952 29.4729 16.0754 29.1763 15.6618L28.3637 16.2445ZM29.8923 17.5244C30.5244 17.8299 31.2734 17.9707 32.1196 17.9707V16.9707C31.3799 16.9707 30.789 16.8471 30.3274 16.624L29.8923 17.5244ZM32.1196 17.9707C32.9825 17.9707 33.7442 17.8304 34.3851 17.5258L33.9557 16.6227C33.4846 16.8466 32.8791 16.9707 32.1196 16.9707V17.9707ZM34.3851 17.5258C35.0181 17.2248 35.534 16.7894 35.9227 16.2221L35.0978 15.6568C34.812 16.0739 34.4347 16.3949 33.9557 16.6227L34.3851 17.5258ZM35.9227 16.2221C36.3034 15.6665 36.5672 15.0104 36.7241 14.2651L35.7456 14.0591C35.6108 14.6993 35.3916 15.228 35.0978 15.6568L35.9227 16.2221ZM36.7244 14.2638C36.8784 13.5228 36.9536 12.7088 36.9536 11.8242H35.9536C35.9536 12.6532 35.883 13.3978 35.7453 14.0604L36.7244 14.2638ZM36.9536 11.8242V0.339844H35.9536V11.8242H36.9536ZM36.4536 0.839844H40.3364V-0.160156H36.4536V0.839844ZM56.9521 0.339844L57.4199 0.163213L57.2978 -0.160156H56.9521V0.339844ZM64.3759 20V20.5H65.0992L64.8437 19.8234L64.3759 20ZM60.5205 20L60.0517 20.1739L60.1727 20.5H60.5205V20ZM58.2783 13.957L58.7471 13.7831L58.6261 13.457H58.2783V13.957ZM51.7978 13.957V13.457H51.45L51.329 13.7831L51.7978 13.957ZM49.5556 20V20.5H49.9034L50.0244 20.1739L49.5556 20ZM45.7002 20L45.2324 19.8234L44.9769 20.5H45.7002V20ZM53.124 0.339844V-0.160156H52.7783L52.6562 0.163213L53.124 0.339844ZM55.038 4.40039L55.5132 4.24486L55.038 2.79304L54.5629 4.24486L55.038 4.40039ZM52.8095 11.209L52.3343 11.0534L52.1198 11.709H52.8095V11.209ZM57.2666 11.209V11.709H57.9563L57.7418 11.0534L57.2666 11.209ZM56.4843 0.516475L63.9082 20.1766L64.8437 19.8234L57.4199 0.163213L56.4843 0.516475ZM64.3759 19.5H60.5205V20.5H64.3759V19.5ZM60.9892 19.8261L58.7471 13.7831L57.8095 14.131L60.0517 20.1739L60.9892 19.8261ZM58.2783 13.457H51.7978V14.457H58.2783V13.457ZM51.329 13.7831L49.0869 19.8261L50.0244 20.1739L52.2666 14.131L51.329 13.7831ZM49.5556 19.5H45.7002V20.5H49.5556V19.5ZM46.1679 20.1766L53.5917 0.516475L52.6562 0.163213L45.2324 19.8234L46.1679 20.1766ZM53.124 0.839844H56.9521V-0.160156H53.124V0.839844ZM54.5629 4.24486L52.3343 11.0534L53.2847 11.3645L55.5132 4.55593L54.5629 4.24486ZM52.8095 11.709H57.2666V10.709H52.8095V11.709ZM57.7418 11.0534L55.5132 4.24486L54.5629 4.55593L56.7914 11.3645L57.7418 11.0534ZM86.6108 0.339844H87.1108V-0.160156H86.6108V0.339844ZM86.6108 20V20.5H87.1108V20H86.6108ZM82.3862 20L81.9546 20.2525L82.0994 20.5H82.3862V20ZM73.7866 5.30273L74.2181 5.05023L73.2866 3.45814V5.30273H73.7866ZM73.7866 20V20.5H74.2866V20H73.7866ZM69.9721 20H69.4721V20.5H69.9721V20ZM69.9721 0.339844V-0.160156H69.4721V0.339844H69.9721ZM74.1967 0.339844L74.6283 0.0873346L74.4835 -0.160156H74.1967V0.339844ZM82.7963 15.0371L82.3648 15.2896L83.2963 16.8817V15.0371H82.7963ZM82.7963 0.339844V-0.160156H82.2963V0.339844H82.7963ZM86.1108 0.339844V20H87.1108V0.339844H86.1108ZM86.6108 19.5H82.3862V20.5H86.6108V19.5ZM82.8177 19.7475L74.2181 5.05023L73.355 5.55524L81.9546 20.2525L82.8177 19.7475ZM73.2866 5.30273V20H74.2866V5.30273H73.2866ZM73.7866 19.5H69.9721V20.5H73.7866V19.5ZM70.4721 20V0.339844H69.4721V20H70.4721ZM69.9721 0.839844H74.1967V-0.160156H69.9721V0.839844ZM73.7652 0.592353L82.3648 15.2896L83.2279 14.7846L74.6283 0.0873346L73.7652 0.592353ZM83.2963 15.0371V0.339844H82.2963V15.0371H83.2963ZM82.7963 0.839844H86.6108V-0.160156H82.7963V0.839844ZM118.461 0.339844H118.961V-0.160156H118.461V0.339844ZM118.461 3.14258V3.64258H118.961V3.14258H118.461ZM112.719 3.14258V2.64258H112.219V3.14258H112.719ZM112.719 20V20.5H113.219V20H112.719ZM108.905 20H108.405V20.5H108.905V20ZM108.905 3.14258H109.405V2.64258H108.905V3.14258ZM103.108 3.14258H102.608V3.64258H103.108V3.14258ZM103.108 0.339844V-0.160156H102.608V0.339844H103.108ZM117.961 0.339844V3.14258H118.961V0.339844H117.961ZM118.461 2.64258H112.719V3.64258H118.461V2.64258ZM112.219 3.14258V20H113.219V3.14258H112.219ZM112.719 19.5H108.905V20.5H112.719V19.5ZM109.405 20V3.14258H108.405V20H109.405ZM108.905 2.64258H103.108V3.64258H108.905V2.64258ZM103.608 3.14258V0.339844H102.608V3.14258H103.608ZM103.108 0.839844H118.461V-0.160156H103.108V0.839844ZM134.052 0.339844L134.519 0.163213L134.397 -0.160156H134.052V0.339844ZM141.475 20V20.5H142.199L141.943 19.8234L141.475 20ZM137.62 20L137.151 20.1739L137.272 20.5H137.62V20ZM135.378 13.957L135.847 13.7831L135.726 13.457H135.378V13.957ZM128.897 13.957V13.457H128.55L128.429 13.7831L128.897 13.957ZM126.655 20V20.5H127.003L127.124 20.1739L126.655 20ZM122.8 20L122.332 19.8234L122.076 20.5H122.8V20ZM130.224 0.339844V-0.160156H129.878L129.756 0.163213L130.224 0.339844ZM132.138 4.40039L132.613 4.24486L132.138 2.79304L131.662 4.24486L132.138 4.40039ZM129.909 11.209L129.434 11.0534L129.219 11.709H129.909V11.209ZM134.366 11.209V11.709H135.056L134.841 11.0534L134.366 11.209ZM133.584 0.516475L141.008 20.1766L141.943 19.8234L134.519 0.163213L133.584 0.516475ZM141.475 19.5H137.62V20.5H141.475V19.5ZM138.089 19.8261L135.847 13.7831L134.909 14.131L137.151 20.1739L138.089 19.8261ZM135.378 13.457H128.897V14.457H135.378V13.457ZM128.429 13.7831L126.186 19.8261L127.124 20.1739L129.366 14.131L128.429 13.7831ZM126.655 19.5H122.8V20.5H126.655V19.5ZM123.267 20.1766L130.691 0.516475L129.756 0.163213L122.332 19.8234L123.267 20.1766ZM130.224 0.839844H134.052V-0.160156H130.224V0.839844ZM131.662 4.24486L129.434 11.0534L130.384 11.3645L132.613 4.55593L131.662 4.24486ZM129.909 11.709H134.366V10.709H129.909V11.709ZM134.841 11.0534L132.613 4.24486L131.662 4.55593L133.891 11.3645L134.841 11.0534ZM159.322 0.791016L159.119 1.24808L159.122 1.24943L159.322 0.791016ZM162.07 2.86914L161.677 3.17806L161.678 3.18051L162.07 2.86914ZM163.601 6.08203L163.116 6.20247L163.116 6.2033L163.601 6.08203ZM163.601 14.2988L164.086 14.4201L164.086 14.4193L163.601 14.2988ZM162.07 17.498L161.678 17.1867L161.677 17.1891L162.07 17.498ZM159.322 19.5898L159.521 20.0483L159.524 20.0469L159.322 19.5898ZM148.288 17.5527L147.897 17.8636L147.899 17.8661L148.288 17.5527ZM146.744 14.3535L146.259 14.4773L146.26 14.4806L146.744 14.3535ZM146.744 6.01367L146.26 5.8866L146.259 5.88991L146.744 6.01367ZM148.288 2.81445L147.899 2.50112L147.897 2.50358L148.288 2.81445ZM152.759 3.30664L152.543 2.85567L152.541 2.85689L152.759 3.30664ZM151.214 4.70117L150.792 4.43394L150.791 4.4356L151.214 4.70117ZM150.394 6.99805L150.886 7.08662L150.886 7.08577L150.394 6.99805ZM150.394 13.3828L149.902 13.4705L149.902 13.4714L150.394 13.3828ZM151.214 15.6797L150.789 15.9425L150.793 15.9497L151.214 15.6797ZM152.759 17.0605L152.541 17.5103L152.543 17.5115L152.759 17.0605ZM157.544 17.0742L157.758 17.5265L157.76 17.5252L157.544 17.0742ZM159.089 15.6934L158.668 15.4233L158.666 15.4278L159.089 15.6934ZM159.923 13.3965L159.432 13.304L159.431 13.3088L159.923 13.3965ZM159.923 6.9707L159.431 7.05843L159.432 7.06314L159.923 6.9707ZM159.089 4.67383L158.666 4.93941L158.668 4.94389L159.089 4.67383ZM157.544 3.30664L157.326 3.75646L157.334 3.76006L157.544 3.30664ZM155.165 0.539062C156.758 0.539062 158.07 0.782727 159.119 1.24807L159.524 0.333958C158.313 -0.2033 156.854 -0.460938 155.165 -0.460938V0.539062ZM159.122 1.24943C160.183 1.71146 161.03 2.35536 161.677 3.17805L162.463 2.56023C161.706 1.59646 160.721 0.854948 159.521 0.332599L159.122 1.24943ZM161.678 3.18051C162.339 4.01085 162.821 5.01456 163.116 6.20247L164.086 5.9616C163.761 4.65211 163.222 3.51389 162.461 2.55777L161.678 3.18051ZM163.116 6.2033C163.414 7.39719 163.566 8.72296 163.566 10.1836H164.566C164.566 8.65465 164.407 7.24604 164.086 5.96076L163.116 6.2033ZM163.566 10.1836C163.566 11.6442 163.414 12.9748 163.116 14.1784L164.086 14.4193C164.407 13.1254 164.566 11.7126 164.566 10.1836H163.566ZM163.116 14.1776C162.821 15.3561 162.34 16.3557 161.678 17.1867L162.461 17.8094C163.221 16.8539 163.761 15.7207 164.086 14.4201L163.116 14.1776ZM161.677 17.1891C161.03 18.0126 160.181 18.6616 159.119 19.1328L159.524 20.0469C160.722 19.5155 161.706 18.7699 162.463 17.807L161.677 17.1891ZM159.122 19.1314C158.072 19.5887 156.759 19.8281 155.165 19.8281V20.8281C156.853 20.8281 158.311 20.5753 159.521 20.0483L159.122 19.1314ZM155.165 19.8281C153.6 19.8281 152.299 19.5934 151.247 19.1438L150.854 20.0633C152.062 20.5798 153.505 20.8281 155.165 20.8281V19.8281ZM151.247 19.1438C150.185 18.6902 149.333 18.0544 148.678 17.2394L147.899 17.8661C148.665 18.8193 149.654 19.5507 150.854 20.0633L151.247 19.1438ZM148.68 17.2419C148.027 16.4192 147.54 15.4178 147.227 14.2264L146.26 14.4806C146.603 15.7867 147.146 16.918 147.897 17.8636L148.68 17.2419ZM147.228 14.2298C146.921 13.0282 146.765 11.6807 146.765 10.1836H145.765C145.765 11.749 145.928 13.1814 146.259 14.4773L147.228 14.2298ZM146.765 10.1836C146.765 8.68651 146.921 7.33896 147.228 6.13743L146.259 5.88991C145.928 7.18578 145.765 8.61818 145.765 10.1836H146.765ZM147.227 6.14075C147.54 4.94943 148.027 3.94794 148.68 3.12532L147.897 2.50358C147.146 3.4492 146.603 4.58052 146.26 5.8866L147.227 6.14075ZM148.678 3.12778C149.333 2.31283 150.185 1.67703 151.247 1.22344L150.854 0.303907C149.654 0.81646 148.665 1.54785 147.899 2.50113L148.678 3.12778ZM151.247 1.22344C152.299 0.77381 153.6 0.539062 155.165 0.539062V-0.460938C153.505 -0.460938 152.062 -0.212612 150.854 0.303907L151.247 1.22344ZM155.165 2.3418C154.157 2.3418 153.276 2.5046 152.543 2.85568L152.975 3.7576C153.536 3.48889 154.259 3.3418 155.165 3.3418V2.3418ZM152.541 2.85689C151.816 3.20886 151.232 3.7383 150.792 4.43394L151.637 4.9684C151.981 4.42446 152.426 4.02421 152.978 3.75639L152.541 2.85689ZM150.791 4.4356C150.365 5.11414 150.074 5.9445 149.902 6.91032L150.886 7.08577C151.042 6.21045 151.298 5.50956 151.638 4.96674L150.791 4.4356ZM149.902 6.90947C149.731 7.8575 149.648 8.95018 149.648 10.1836H150.648C150.648 8.99253 150.729 7.96151 150.886 7.08662L149.902 6.90947ZM149.648 10.1836C149.648 11.4171 149.731 12.514 149.902 13.4705L150.886 13.2951C150.729 12.4105 150.648 11.3745 150.648 10.1836H149.648ZM149.902 13.4714C150.074 14.4285 150.365 15.257 150.789 15.9424L151.64 15.4169C151.297 14.8628 151.042 14.16 150.886 13.2942L149.902 13.4714ZM150.793 15.9497C151.234 16.6359 151.818 17.1593 152.541 17.5103L152.978 16.6108C152.424 16.342 151.979 15.9448 151.635 15.4096L150.793 15.9497ZM152.543 17.5115C153.276 17.8626 154.157 18.0254 155.165 18.0254V17.0254C154.259 17.0254 153.536 16.8783 152.975 16.6096L152.543 17.5115ZM155.165 18.0254C156.163 18.0254 157.034 17.8676 157.758 17.5265L157.331 16.622C156.779 16.8824 156.064 17.0254 155.165 17.0254V18.0254ZM157.76 17.5252C158.493 17.1742 159.08 16.6494 159.513 15.9589L158.666 15.4278C158.333 15.9586 157.89 16.3544 157.328 16.6233L157.76 17.5252ZM159.51 15.9634C159.946 15.2838 160.243 14.4518 160.415 13.4842L159.431 13.3088C159.275 14.1824 159.016 14.8816 158.668 15.4233L159.51 15.9634ZM160.415 13.4889C160.595 12.5303 160.683 11.4272 160.683 10.1836H159.683C159.683 11.3827 159.598 12.4215 159.432 13.304L160.415 13.4889ZM160.683 10.1836C160.683 8.94 160.595 7.83687 160.415 6.87827L159.432 7.06314C159.598 7.94568 159.683 8.98448 159.683 10.1836H160.683ZM160.415 6.88298C160.243 5.91542 159.946 5.08342 159.51 4.40377L158.668 4.94389C159.016 5.48559 159.275 6.18484 159.431 7.05843L160.415 6.88298ZM159.513 4.40826C159.079 3.71658 158.491 3.19516 157.755 2.85322L157.334 3.76006C157.892 4.01968 158.334 4.40972 158.666 4.9394L159.513 4.40826ZM157.763 2.85689C157.038 2.50474 156.165 2.3418 155.165 2.3418V3.3418C156.062 3.3418 156.775 3.48875 157.326 3.75639L157.763 2.85689Z" fill="white"/>
</g>
</svg>
